<?xml version="1.0" encoding="UTF-8" standalone="no"?>
<svg
   xmlns:dc="http://purl.org/dc/elements/1.1/"
   xmlns:cc="http://creativecommons.org/ns#"
   xmlns:rdf="http://www.w3.org/1999/02/22-rdf-syntax-ns#"
   xmlns:svg="http://www.w3.org/2000/svg"
   xmlns="http://www.w3.org/2000/svg"
   viewBox="0 0 116.168 68.447289"
   height="68.447289"
   width="116.168"
   xml:space="preserve"
   version="1.1"
   id="svg3356"><metadata
     id="metadata3362"><rdf:RDF><cc:Work
         rdf:about=""><dc:format>image/svg+xml</dc:format><dc:type
           rdf:resource="http://purl.org/dc/dcmitype/StillImage" /><dc:title></dc:title></cc:Work></rdf:RDF></metadata><defs
     id="defs3360"><clipPath
       id="clipPath3372"
       clipPathUnits="userSpaceOnUse"><path
         id="path3374"
         d="M 0,558.965 V 0 h 4346.67 v 558.965 z" /></clipPath></defs><g
     transform="matrix(1.25,0,0,-1.25,0,69.870625)"
     id="g3364"><g
       transform="scale(0.1)"
       id="g3366"><g
         id="g3370"
         clip-path="url(#clipPath3372)"><g
           id="g4215"><path
             id="path3398"
             style="fill:#22aae2;fill-opacity:1;fill-rule:nonzero;stroke:none"
             d="m 173.199,334.18 c -19.969,-4.196 -38.617,-13.551 -54.004,-27.504 -1.035,-0.938 -1.968,-1.985 -2.968,-2.961 120.503,3.449 524.433,21.32 763.945,108.855 l -0.309,29 C 568.133,338.48 200.109,335.375 173.199,334.18" /><path
             id="path3400"
             style="fill:#22aae2;fill-opacity:1;fill-rule:nonzero;stroke:none"
             d="m 88.6992,261.238 c 68.7418,1.121 578.9418,11.946 790.5548,89.285 l -0.313,29.528 C 665.594,305.605 211.793,291.984 103.977,289.766 c -3.7,-5.032 -7.0239,-10.352 -9.8168,-15.879 -2.2735,-4.5 -4,-8.633 -5.461,-12.649" /><path
             id="path3402"
             style="fill:#22aae2;fill-opacity:1;fill-rule:nonzero;stroke:none"
             d="m 82.2734,225.398 c -0.0078,-0.609 -0.0312,-1.218 -0.0703,-1.843 v -4.235 c 35.4919,0.446 630.8709,8.743 796.1249,69.137 l -0.308,29.106 C 704.922,257.168 141.367,248.246 84.8633,247.5 c -0.4063,-2.008 -0.8242,-3.98 -1.1719,-6.195 -0.9062,-5.828 -1.3711,-11.032 -1.418,-15.907" /><path
             id="path3404"
             style="fill:#22aae2;fill-opacity:1;fill-rule:nonzero;stroke:none"
             d="m 83.6914,189.035 c 0.6641,-4.242 1.4844,-7.965 2.3867,-11.488 66.6949,0.836 683.9219,9.59 791.3239,48.844 l -0.304,28.687 C 759.742,214.129 125.746,206.055 82.25,205.547 c 0.0039,-0.199 0.0195,-0.399 0.0234,-0.598 0.0469,-4.879 0.5118,-10.082 1.418,-15.914" /><path
             id="path3406"
             style="fill:#22aae2;fill-opacity:1;fill-rule:nonzero;stroke:none"
             d="m 104.582,139.695 c 0.961,-1.285 2.055,-2.468 3.074,-3.715 135.149,1.688 718.645,10.008 768.821,28.344 l -0.301,28.27 C 819.848,172.938 183.52,164.809 90.7813,163.727 c 1.0156,-2.352 2.1015,-4.747 3.375,-7.274 2.9531,-5.844 6.4607,-11.48 10.4257,-16.758" /><path
             id="path3408"
             style="fill:#22aae2;fill-opacity:1;fill-rule:nonzero;stroke:none"
             d="m 875.547,102.258 -0.293,27.851 -754.191,-7.988 c 16.925,-14.719 37.531,-24.0702 59.464,-27.2226 l 695.02,7.3596" /></g><path
           d="m 80.1211,177.477 c 0,0 2.1289,0.023 5.957,0.07 -0.9023,3.523 -1.7226,7.246 -2.3867,11.488 -0.9062,5.832 -1.3711,11.035 -1.418,15.914 -0.0039,0.199 -0.0195,0.399 -0.0234,0.598 -1.5508,-0.016 -2.4258,-0.027 -2.4258,-0.027"
           style="fill:#ffffff;fill-opacity:1;fill-rule:nonzero;stroke:none"
           id="path3410" /><path
           d="m 53.9258,225.672 c 5.039,115.308 108.0232,139.414 143.0822,139.414 0,0 324.043,-6.191 732.336,130.008 v 63.871 C 498.965,405.98 197.008,418.953 197.008,418.953 126.832,418.953 65.2773,382.402 30.3711,327.672 27.1797,322.664 24.2031,317.523 21.4727,312.223 7.84766,285.781 0,255.965 0,224.316 v -18.293 c 0,-31.648 7.84766,-61.464 21.4727,-87.906 2.7304,-5.301 5.7031,-10.437 8.8984,-15.445 C 65.2773,47.9375 126.832,11.3867 197.008,11.3867 H 929.344 V 65.2539 H 197.008 c -32.535,0 -138.8752,23.2266 -143.0822,139.4181 -0.0156,0.457 -0.0703,0.894 -0.0703,1.351 v 18.293 c 0,0.457 0.0508,0.899 0.0703,1.356"
           style="fill:#ee1c25;fill-opacity:1;fill-rule:nonzero;stroke:none"
           id="path3412" /></g></g></g></svg>